<?xml version="1.0" encoding="utf-8"?>
<!-- Generator: Adobe Illustrator 27.2.0, SVG Export Plug-In . SVG Version: 6.00 Build 0)  -->
<svg xmlns="http://www.w3.org/2000/svg" xmlns:xlink="http://www.w3.org/1999/xlink" version="1.1" id="Layer_1" x="0px" y="0px" viewBox="0 0 24 24" style="enable-background:new 0 0 24 24;" xml:space="preserve">
<path d="M15.7,23c0.3,0.3,0.7,0.5,1.1,0.7C16.4,23.9,16,24,15.5,24h-13C1.1,24,0,22.9,0,21.5V2h5.1c0.2-1.1,1.2-2,2.4-2h3  c1.2,0,2.2,0.9,2.4,2H18v8.1c-0.3,0-0.7,0.1-1,0.2V3h-5V2.5C12,1.7,11.3,1,10.5,1h-3C6.7,1,6,1.7,6,2.5V3H1v18.5  C1,22.3,1.7,23,2.5,23h13C15.6,23,15.6,23,15.7,23z M8.5,5.1l0.7,0.7L6.3,8.7C6.1,8.9,5.8,9,5.6,9S5,8.9,4.8,8.7L3.1,7l0.7-0.7  L5.5,8c0,0,0.1,0,0.1,0L8.5,5.1L8.5,5.1z M8.5,11.1l0.7,0.7l-2.8,2.8C6.1,14.9,5.8,15,5.6,15S5,14.9,4.8,14.7L3.1,13l0.7-0.7L5.5,14  c0,0,0.1,0,0.1,0L8.5,11.1L8.5,11.1z M8.5,17.1l0.7,0.7l-2.8,2.8C6.1,20.9,5.8,21,5.6,21S5,20.9,4.8,20.7L3.1,19l0.7-0.7L5.5,20  c0,0,0.1,0,0.1,0L8.5,17.1L8.5,17.1z M24,15v-0.5c0-1.4-1.1-2.5-2.5-2.5h-1v-2h-1v2h-1c-1.4,0-2.5,1.1-2.5,2.5  c0,1.1,0.7,2.1,1.8,2.4l4.1,1.2c0.6,0.2,1.1,0.8,1.1,1.4c0,0.8-0.7,1.5-1.5,1.5h-3c-0.8,0-1.5-0.7-1.5-1.5V19h-1v0.5  c0,1.4,1.1,2.5,2.5,2.5h1v2h1v-2h1c1.4,0,2.5-1.1,2.5-2.5c0-1.1-0.7-2.1-1.8-2.4l-4.1-1.2c-0.6-0.2-1.1-0.8-1.1-1.4  c0-0.8,0.7-1.5,1.5-1.5h3c0.8,0,1.5,0.7,1.5,1.5V15C23,15,24,15,24,15z"/>
</svg>
